<?xml version="1.0" encoding="utf-8"?>
<!-- Generator: Adobe Illustrator 24.0.3, SVG Export Plug-In . SVG Version: 6.00 Build 0)  -->
<svg version="1.1" id="Layer_1" xmlns="http://www.w3.org/2000/svg" xmlns:xlink="http://www.w3.org/1999/xlink" x="0px" y="0px"
	 viewBox="0 0 1146 717" style="enable-background:new 0 0 1146 717;" xml:space="preserve">
<style type="text/css">
	.st0{fill:#FFD900;stroke:#000000;stroke-miterlimit:10;}
	.st1{fill:#FFFFFF;stroke:#000000;stroke-miterlimit:10;}
	.st2{fill:#00A651;stroke:#000000;stroke-miterlimit:10;}
	.st3{stroke:#000000;stroke-miterlimit:10;}
	.st4{fill:#00AEEF;stroke:#000000;stroke-width:0.5;stroke-miterlimit:10;}
	.st5{fill:#FFDE17;stroke:#000000;stroke-miterlimit:10;}
</style>
<circle class="st0" cx="599.42" cy="329.94" r="119.91"/>
<path class="st1" d="M583.43,258.72c0,0-30.77,119.06-26.59,123.87c4.19,4.81,58.53,26.26,88.7-9.74
	c30.17-36-59.84-49.95-59.84-49.95s43.78-2.3,57.37-27.24S610.98,253.39,583.43,258.72z"/>
<circle class="st2" cx="599.34" cy="364.71" r="10.55"/>
<circle class="st3" cx="586.13" cy="355.48" r="3.31"/>
<circle class="st3" cx="611.7" cy="354.17" r="3.31"/>
<ellipse transform="matrix(0.1486 -0.9889 0.9889 0.1486 169.4094 894.3011)" class="st4" cx="604.09" cy="348.76" rx="4.88" ry="3.31"/>
<ellipse transform="matrix(0.9812 -0.1932 0.1932 0.9812 -56.1993 121.3017)" class="st4" cx="593.77" cy="348.76" rx="3.31" ry="5.07"/>
<path class="st5" d="M622.35,292.06c6.49-10.39-10.11-19.2-23.24-19.61c-2.44-0.08-4.58,1.64-5.08,4.03l-5.29,25.29
	c-0.5,2.37,1.44,4.06,3.84,4.33C600.08,306.94,613.79,304.23,622.35,292.06"/>
</svg>
